<svg xmlns="http://www.w3.org/2000/svg" enable-background="new 0 0 24 24" viewBox="0 0 24 24"><path fill="#fff" d="m6.497 6.952c1.834-1.334 3.532-1.27 3.532-1.27l.137.135c-2.243.535-3.261 1.537-3.261 1.537s.272-.133.747-.336c1.36-.535 2.377-.735 2.855-.735h.203c.746-.064 1.63-.135 2.514 0 1.223.135 2.445.469 3.803 1.137 0 0-1.019-.937-3.124-1.537l.187-.183c.291.001 1.831.055 3.479 1.26 0 0 1.844 3.15 1.844 7.02-.061-.074-1.143 1.666-3.931 1.726 0 0-.473-.534-.807-1 1.631-.468 2.24-1.404 2.24-1.404-.536.338-1.023.537-1.419.737-.61.268-1.22.4-1.829.535-1.232.2-2.315.135-3.26 0-.747-.133-1.355-.334-1.829-.536-.274-.13-.609-.264-.944-.4l-.061-.03v-.006l-.062-.03h-.061c-.204-.134-.341-.2-.341-.2s.609.936 2.174 1.404c-.411.469-.817 1.002-.817 1.002-2.786-.066-3.802-1.806-3.802-1.806 0-3.876 1.833-7.02 1.833-7.02z"/><path fill="#dedede" d="m9.991 5.682c-.26 0-1.821.053-3.494 1.27 0 0-1.833 3.144-1.833 7.02 0 0 1.016 1.74 3.802 1.806 0 0 .406-.533.817-1.002-1.564-.468-2.174-1.404-2.174-1.404s.137.066.341.2h.061l.062.03v.006l.061.03c.335.136.67.27.944.4.474.202 1.082.403 1.829.536.493.07 1.024.122 1.594.126v-8.493c-.455.006-.892.042-1.29.076h-.203c-.478 0-1.494.2-2.855.735-.475.203-.748.336-.748.336s1.018-1.002 3.261-1.537l-.137-.135s-.013 0-.038 0z"/><path fill="#5c6bc0" d="m14.308 12.771c.711 0 1.29-.6 1.29-1.34 0-.735-.576-1.335-1.29-1.335v.003c-.708 0-1.288.598-1.29 1.338 0 .734.579 1.334 1.29 1.334z"/><path fill="#5c6bc0" d="m3.58 21.196h14.259l-.681-2.205 1.63 1.398 1.493 1.338 2.719 2.273v-21.525c-.068-1.338-1.22-2.475-2.648-2.475l-16.767.003c-1.427 0-2.585 1.139-2.585 2.477v16.24c0 1.411 1.156 2.476 2.58 2.476zm10.548-15.513-.032.011.012-.011zm-7.631 1.269c1.834-1.334 3.532-1.27 3.532-1.27l.137.135c-2.243.535-3.261 1.537-3.261 1.537s.273-.133.747-.336c1.36-.535 2.377-.735 2.855-.735h.203c.746-.064 1.63-.135 2.514 0 1.223.135 2.445.469 3.803 1.137 0 0-1.019-.937-3.124-1.537l.187-.183c.291.001 1.831.055 3.478 1.26 0 0 1.844 3.15 1.844 7.02-.06-.074-1.143 1.666-3.931 1.726 0 0-.473-.534-.808-1 1.631-.468 2.24-1.404 2.24-1.404-.536.337-1.023.537-1.419.737-.61.268-1.22.4-1.829.535-1.232.2-2.315.135-3.26 0-.747-.133-1.356-.334-1.829-.536-.274-.13-.609-.264-.944-.4l-.061-.03v-.006l-.062-.03h-.059c-.204-.134-.341-.2-.341-.2s.609.936 2.174 1.404c-.411.469-.817 1.002-.817 1.002-2.786-.066-3.802-1.806-3.802-1.806 0-3.876 1.833-7.02 1.833-7.02z"/><path fill="#505da7" d="m12 .001-8.415.002c-1.427 0-2.585 1.139-2.585 2.477v16.24c0 1.411 1.156 2.476 2.58 2.476h8.42v-6.496c-.57-.005-1.101-.056-1.594-.126-.747-.133-1.356-.334-1.829-.536-.274-.13-.609-.264-.944-.4l-.061-.03v-.006l-.062-.03h-.06c-.204-.134-.341-.2-.341-.2s.609.936 2.174 1.404c-.411.469-.817 1.002-.817 1.002-2.786-.066-3.802-1.806-3.802-1.806 0-3.876 1.833-7.02 1.833-7.02 1.673-1.217 3.234-1.27 3.494-1.27h.038l.137.135c-2.243.535-3.261 1.537-3.261 1.537s.273-.133.747-.336c1.36-.535 2.377-.735 2.855-.735h.203c.398-.034.835-.07 1.29-.076z"/><path fill="#5c6bc0" d="m9.689 12.771c.711 0 1.29-.6 1.29-1.34 0-.735-.575-1.335-1.286-1.335l-.004.003c-.711 0-1.29.598-1.29 1.338 0 .734.579 1.334 1.29 1.334z"/><path fill="#505da7" d="M9.689 10.099c-.711 0-1.29.598-1.29 1.338 0 .734.579 1.334 1.29 1.334zM14.308 10.099c-.711 0-1.29.598-1.29 1.338 0 .734.579 1.334 1.29 1.334z"/></svg>